# xmcd
#
# Track frame offsets: 
#        150
#        4893
#        11452
#        15478
#        20127
#        27462
#        31740
#        38817
#        47390
#        53658
#        59040
#        63746
#        69945
#        76465
#        80894
#        87201
#        99443
#        104021
#        108594
#        112749
#        119135
#        128260
#        133626
#        145351
#        155804
#        160458
#        170880
#
# Disc length: 2385 seconds
#
# Revision: 3
# Processed by: cddbd v1.5.2PL0 Copyright (c) Steve Scherf et al.
# Submitted via: ExactAudioCopy v1.0b3
#
DISCID=75094f1b
DTITLE=Various Artist - National Anthems, CD2 - Nationalhymnen
DYEAR=2005
DGENRE=Folklore
TTITLE0=Mauritania
TTITLE1=Mexico
TTITLE2=Monaco
TTITLE3=Mongolia
TTITLE4=Netherlands
TTITLE5=New Zealand
TTITLE6=Norway
TTITLE7=Peru
TTITLE8=Poland
TTITLE9=Portugal
TTITLE10=Russia
TTITLE11=San Marino
TTITLE12=Spain
TTITLE13=Sudan
TTITLE14=Sweden
TTITLE15=Switzerland
TTITLE16=Syria
TTITLE17=Taiwan
TTITLE18=Tansania
TTITLE19=Thailand
TTITLE20=Turkey
TTITLE21=United Arabian Republic
TTITLE22=U.S.A
TTITLE23=Vatican
TTITLE24=Vietnam
TTITLE25=Europe Anthem
TTITLE26=German Democratic Republic
EXTD=55 Nationalhymnen
EXTT0=
EXTT1=
EXTT2=
EXTT3=
EXTT4=
EXTT5=
EXTT6=
EXTT7=
EXTT8=Mazurek Debrowskiego
EXTT9=A portuguesa
EXTT10=
EXTT11=
EXTT12=Marcha real
EXTT13=
EXTT14=
EXTT15=
EXTT16=
EXTT17=
EXTT18=
EXTT19=
EXTT20=Istiklal Marst
EXTT21=
EXTT22=The Star-Spangled Banner
EXTT23=
EXTT24=
EXTT25=Ode to joy
EXTT26=
PLAYORDER=
